<?xml version="1.0" standalone="no"?>
<!DOCTYPE svg PUBLIC "-//W3C//DTD SVG 20010904//EN"
 "http://www.w3.org/TR/2001/REC-SVG-20010904/DTD/svg10.dtd">
<svg version="1.0" xmlns="http://www.w3.org/2000/svg"
 width="400.000000pt" height="400.000000pt" viewBox="0 0 400.000000 400.000000"
 preserveAspectRatio="xMidYMid meet">
<metadata>
Created by potrace 1.14, written by Peter Selinger 2001-2017
</metadata>
<g transform="translate(0.000000,400.000000) scale(0.100000,-0.100000)"
fill="#000000" stroke="none">
<path d="M0 2000 l0 -2000 2000 0 2000 0 0 2000 0 2000 -2000 0 -2000 0 0
-2000z m2495 1620 l190 -190 -30 -27 c-17 -16 -40 -41 -52 -58 l-22 -30 -160
160 -161 160 -73 -73 c-47 -47 -94 -83 -132 -101 -71 -33 -147 -111 -177 -179
-18 -43 -151 -192 -170 -192 -5 0 -8 43 -8 96 l0 96 246 252 c136 138 258 259
273 269 51 35 72 21 276 -183z m-143 -206 c195 -63 259 -357 111 -515 -63 -68
-127 -94 -233 -94 -68 0 -95 5 -135 23 -110 51 -166 139 -173 272 -7 139 42
236 147 293 88 48 178 55 283 21z m689 6 c45 -12 103 -51 107 -71 1 -8 -8 -27
-22 -42 l-25 -27 -53 25 c-100 47 -227 27 -276 -42 -76 -110 -47 -285 57 -340
50 -26 151 -32 196 -11 22 10 25 17 25 64 l0 53 -47 3 -48 3 -3 43 -3 42 106
0 106 0 -3 -127 -3 -128 -60 -30 c-54 -27 -69 -30 -155 -30 -88 0 -101 3 -162
33 -113 55 -168 148 -168 282 0 120 49 215 138 267 83 49 187 61 293 33z
m-1719 -17 c56 -26 80 -59 86 -122 5 -58 -16 -105 -59 -129 -35 -20 -36 -28
-6 -36 42 -10 79 -60 84 -113 7 -73 -27 -130 -96 -165 -52 -27 -60 -28 -208
-28 l-153 0 0 311 0 311 153 -4 c129 -3 159 -6 199 -25z m328 -233 l0 -259
123 -3 122 -3 3 -47 3 -48 -185 0 -186 0 0 310 0 310 60 0 60 0 0 -260z m-768
-57 c15 -13 18 -32 18 -115 0 -54 -4 -98 -8 -98 -5 0 -17 9 -27 20 -10 11 -23
20 -29 20 -18 0 -572 -561 -590 -597 -32 -64 -12 -168 40 -214 56 -49 134 -62
200 -34 35 14 574 538 596 578 7 15 5 24 -11 41 l-22 23 117 6 c135 7 204 32
260 94 28 30 34 33 34 18 0 -12 -72 -91 -182 -202 l-183 -183 -97 0 -98 0 0
-98 0 -98 -147 -146 c-133 -130 -154 -148 -211 -168 l-64 -23 311 -311 311
-311 0 -103 c0 -56 -3 -102 -8 -102 -13 0 -928 922 -960 968 -68 96 -75 249
-15 351 15 26 170 189 354 374 295 293 332 327 360 327 18 0 41 -7 51 -17z
m3093 -990 c3 -13 0 -33 -6 -46 -12 -24 -1329 -1347 -1341 -1347 -5 0 -8 46
-8 102 l0 103 585 585 585 585 -336 336 -336 336 46 27 c42 24 46 30 46 64 0
37 3 33 379 -342 209 -209 382 -390 386 -403z m-1618 259 c55 -28 59 -37 37
-78 -22 -39 -31 -41 -81 -14 -77 41 -173 14 -173 -50 0 -36 33 -63 103 -86
151 -49 201 -112 177 -221 -23 -100 -98 -157 -210 -157 -66 0 -143 26 -182 61
-24 21 -23 32 6 68 l24 30 62 -33 c68 -35 90 -38 139 -21 36 13 51 35 51 78 0
41 -30 66 -109 90 -121 37 -171 89 -171 179 0 77 47 141 125 170 46 17 153 9
202 -16z m-997 -27 l0 -45 -135 0 -135 0 0 -85 0 -85 105 0 105 0 0 -45 0 -45
-105 0 -105 0 0 -85 0 -85 135 0 135 0 0 -50 0 -50 -195 0 -195 0 0 310 0 310
195 0 195 0 0 -45z m506 -250 c63 -159 117 -298 120 -307 5 -16 -2 -18 -49
-18 -32 0 -59 5 -65 13 -5 6 -20 40 -32 75 l-23 62 -128 0 -128 0 -20 -57
c-32 -88 -32 -88 -96 -91 -51 -3 -57 -1 -53 15 7 22 228 585 235 596 3 4 32 7
65 5 l60 -3 114 -290z m774 153 c69 -126 90 -156 90 -128 0 6 32 69 71 140
l71 130 65 0 c35 0 62 -3 60 -7 -2 -5 -51 -86 -108 -182 l-104 -175 -5 -125
-5 -126 -57 -3 -58 -3 0 120 0 119 -110 186 c-60 102 -110 188 -110 191 0 3
28 5 63 3 l62 -3 75 -137z m-1376 -894 c9 -9 85 -104 169 -211 l152 -195 3
212 2 211 53 -3 52 -3 3 -308 c3 -340 5 -325 -61 -313 -34 6 -35 8 -347 407
-13 17 -15 -3 -15 -194 l0 -212 -52 -3 -53 -3 0 315 0 316 39 0 c23 0 46 -7
55 -16z m956 -34 l0 -50 -135 0 -135 0 0 -85 0 -85 111 0 110 0 -3 -42 -3 -43
-107 -3 -108 -3 0 -84 0 -85 135 0 135 0 0 -50 0 -50 -195 0 -195 0 0 315 0
315 195 0 195 0 0 -50z m538 -2 l3 -48 -95 0 -96 0 0 -265 0 -266 -57 3 -58 3
-3 263 -2 262 -95 0 -95 0 0 43 c0 24 3 47 7 51 4 3 115 5 247 4 l241 -3 3
-47z m-1317 -473 c63 -82 116 -140 136 -150 17 -8 57 -15 89 -15 l58 0 111
-110 c192 -189 245 -189 435 4 l105 106 110 0 110 0 -175 -173 c-210 -208
-232 -221 -365 -222 -147 0 -160 8 -466 312 l-259 257 0 63 c0 35 1 63 3 63 2
0 50 -61 108 -135z m-391 5 c41 -41 10 -110 -48 -110 -35 0 -64 30 -64 65 0
58 71 86 112 45z"/>
<path d="M2145 3316 c-100 -44 -138 -199 -77 -316 35 -69 81 -95 168 -95 118
0 184 76 184 214 0 96 -34 161 -102 197 -34 18 -133 18 -173 0z"/>
<path d="M1090 3250 l0 -90 59 0 c69 0 118 15 131 40 14 26 12 83 -3 104 -15
20 -73 35 -139 36 l-48 0 0 -90z"/>
<path d="M1090 2989 l0 -91 84 3 c73 4 88 7 110 28 18 17 26 35 26 58 0 71
-36 93 -151 93 l-69 0 0 -91z"/>
<path d="M1642 2152 c-23 -64 -42 -120 -42 -124 0 -5 41 -8 91 -8 67 0 90 3
87 13 -9 37 -84 237 -88 237 -3 0 -24 -53 -48 -118z"/>
</g>
</svg>
