<?xml version="1.0" encoding="utf-8"?>
<!-- Generator: Adobe Illustrator 27.0.1, SVG Export Plug-In . SVG Version: 6.00 Build 0)  -->
<svg version="1.1" xmlns="http://www.w3.org/2000/svg" xmlns:xlink="http://www.w3.org/1999/xlink" x="0px" y="0px"
	 viewBox="0 0 40 40" style="enable-background:new 0 0 40 40;" xml:space="preserve">
<style type="text/css">
	.st0{display:none;}
	.st1{display:inline;fill:#1F1F21;}
	.st2{fill:#FFFFFF;}
</style>
<g id="bg__x23_1f1f21" class="st0">
	<rect class="st1" width="40" height="40"/>
</g>
<g id="shape">
	<g>
		<path class="st2" d="M21.93,34.97c-0.86,0.86-1.95,0.87-2.81,0.02c-0.63-0.63-1.26-1.26-1.89-1.89h-0.97
			c-0.19,0-0.37-0.04-0.52-0.11c-0.15-0.07-0.29-0.19-0.41-0.33l-2.02-2.57v1.22c1.58,1.58,3.15,3.15,4.73,4.73
			c0.28,0.27,0.6,0.52,0.94,0.7c1.31,0.69,2.87,0.42,3.95-0.66c0.99-0.99,1.99-1.99,2.98-2.98H23.8
			C23.18,33.72,22.55,34.35,21.93,34.97z"/>
		<path class="st2" d="M4.74,20.61c0.14-0.04,0.22-0.06,0.31-0.09c0.62-0.16,1.14-0.46,1.6-0.92c0.76-0.77,1.53-1.53,2.3-2.3v-1.99
			h1.98c1.22-1.22,2.43-2.43,3.65-3.65v-0.43c-0.14,0.25-0.31,0.47-0.54,0.66c-0.26,0.22-0.57,0.38-0.93,0.5
			c-0.34,0.11-0.74,0.17-1.16,0.17h-1.51c0.18,0.18,0.36,0.36,0.54,0.54c-0.05,0.06-0.09,0.12-0.14,0.17c-1.8,1.8-3.59,3.6-5.4,5.39
			c-0.56,0.56-1.37,0.7-2.07,0.39c-0.71-0.32-1.15-1.03-1.12-1.79c0.02-0.47,0.19-0.87,0.52-1.2c1.81-1.82,3.62-3.63,5.44-5.44
			c0.05-0.05,0.11-0.08,0.17-0.12c0.19,0.19,0.38,0.38,0.57,0.57V8.95C8.58,8.61,8.12,8.61,7.77,8.96C5.74,10.99,3.7,13,1.7,15.05
			c-0.96,0.99-1.15,2.19-0.71,3.49c0.22,0.66,0.7,1.14,1.18,1.62c2.94,2.93,5.87,5.87,8.81,8.8v-2.12
			c-2.01-2.01-4.02-4.02-6.03-6.03C4.88,20.75,4.83,20.7,4.74,20.61z"/>
		<path class="st2" d="M18.7,7.32c0.18-0.47,0.45-0.88,0.78-1.22c0.34-0.35,0.75-0.62,1.21-0.81c0.13-0.05,0.27-0.1,0.41-0.14
			c0.41-0.41,0.81-0.81,1.22-1.22c0.09-0.09,0.19-0.19,0.3-0.3c1.07,1.07,2.14,2.14,3.21,3.21c0.16-0.28,0.35-0.54,0.57-0.77
			c0.13-0.13,0.28-0.26,0.44-0.37c-1.17-1.17-2.34-2.34-3.51-3.51c-0.48-0.48-0.91-0.48-1.39,0c-1.63,1.63-3.25,3.26-4.88,4.88v2.12
			c0.51-0.51,1.02-1.02,1.53-1.53C18.62,7.55,18.66,7.43,18.7,7.32z"/>
		<path class="st2" d="M39.4,18.27c-2.42-2.42-4.85-4.85-7.27-7.27v0.65l-0.27,0.2c-0.2,0.15-0.42,0.28-0.64,0.39
			c2.24,2.24,4.48,4.48,6.72,6.72c-0.07,0.07-0.15,0.15-0.23,0.23C33.9,23,30.08,26.82,26.26,30.64v2.11
			c4.38-4.38,8.77-8.76,13.15-13.15C39.88,19.14,39.87,18.74,39.4,18.27z"/>
		<path class="st2" d="M12.98,11.77c0.28-0.09,0.51-0.22,0.71-0.38c0.19-0.16,0.34-0.35,0.44-0.57c0.1-0.22,0.15-0.46,0.15-0.73
			c0-0.73-0.42-1.19-1.27-1.38c0.19-0.07,0.36-0.15,0.49-0.24c0.14-0.09,0.25-0.2,0.34-0.31c0.09-0.12,0.16-0.24,0.2-0.37
			c0.04-0.13,0.06-0.27,0.06-0.42c0-0.25-0.04-0.48-0.13-0.68c-0.09-0.2-0.22-0.37-0.4-0.52c-0.18-0.14-0.42-0.25-0.71-0.33
			c-0.29-0.08-0.63-0.12-1.04-0.12H9.69v6.18h2.33C12.39,11.91,12.7,11.87,12.98,11.77z M10.84,6.62h0.98
			c0.39,0,0.67,0.07,0.85,0.21s0.27,0.37,0.27,0.69c0,0.31-0.1,0.54-0.3,0.68c-0.2,0.14-0.5,0.21-0.89,0.21h-0.91V6.62z
			 M10.84,11.01V9.2H12c0.2,0,0.38,0.02,0.52,0.06c0.14,0.04,0.26,0.1,0.35,0.17s0.16,0.17,0.2,0.27c0.04,0.11,0.06,0.23,0.06,0.36
			c0,0.13-0.02,0.25-0.06,0.36c-0.04,0.11-0.1,0.21-0.19,0.3c-0.09,0.09-0.2,0.15-0.35,0.21c-0.15,0.05-0.32,0.08-0.54,0.08H10.84z"
			/>
		<polygon class="st2" points="18.94,10.96 16.47,10.96 16.47,5.73 15.32,5.73 15.32,11.91 18.94,11.91 		"/>
		<path class="st2" d="M21.03,11.74c0.38,0.16,0.81,0.24,1.28,0.24c0.47,0,0.9-0.08,1.28-0.24c0.38-0.16,0.71-0.38,0.99-0.66
			c0.27-0.28,0.49-0.62,0.63-1c0.15-0.39,0.22-0.81,0.22-1.26c0-0.3-0.03-0.59-0.1-0.86c-0.07-0.27-0.16-0.53-0.29-0.76
			c-0.13-0.23-0.28-0.45-0.47-0.63c-0.18-0.19-0.39-0.35-0.62-0.48c-0.23-0.13-0.48-0.24-0.76-0.31c-0.28-0.07-0.57-0.11-0.88-0.11
			c-0.47,0-0.89,0.08-1.28,0.24c-0.38,0.16-0.71,0.38-0.99,0.66c-0.28,0.28-0.49,0.62-0.64,1c-0.15,0.39-0.23,0.81-0.23,1.26
			s0.08,0.87,0.23,1.26c0.15,0.39,0.36,0.72,0.64,1C20.32,11.36,20.65,11.58,21.03,11.74z M20.49,7.91c0.09-0.27,0.22-0.5,0.39-0.69
			c0.17-0.19,0.37-0.33,0.62-0.43c0.24-0.1,0.51-0.15,0.81-0.15c0.3,0,0.57,0.05,0.81,0.15c0.24,0.1,0.45,0.24,0.61,0.43
			c0.17,0.19,0.3,0.42,0.39,0.69c0.09,0.27,0.14,0.57,0.14,0.91c0,0.34-0.05,0.64-0.14,0.91c-0.09,0.27-0.22,0.5-0.39,0.68
			c-0.17,0.19-0.37,0.33-0.61,0.43c-0.24,0.1-0.51,0.15-0.81,0.15c-0.3,0-0.57-0.05-0.81-0.15c-0.24-0.1-0.45-0.24-0.62-0.43
			c-0.17-0.19-0.3-0.41-0.39-0.68c-0.09-0.27-0.14-0.57-0.14-0.91C20.35,8.48,20.4,8.18,20.49,7.91z"/>
		<path class="st2" d="M26.09,8.82c0,0.46,0.08,0.88,0.24,1.27c0.16,0.39,0.38,0.72,0.67,1c0.29,0.28,0.64,0.5,1.05,0.65
			c0.41,0.16,0.87,0.24,1.37,0.24c0.4,0,0.78-0.05,1.14-0.16c0.35-0.11,0.69-0.28,1-0.51v-2.5H29.5v0.65c0,0.06,0.02,0.11,0.06,0.15
			c0.04,0.04,0.1,0.06,0.17,0.06h0.78v1.12c-0.17,0.08-0.35,0.15-0.53,0.2c-0.18,0.05-0.38,0.07-0.61,0.07
			c-0.32,0-0.61-0.05-0.87-0.15c-0.26-0.1-0.48-0.25-0.66-0.44c-0.18-0.19-0.33-0.43-0.43-0.71c-0.1-0.28-0.15-0.59-0.15-0.95
			c0-0.33,0.05-0.63,0.14-0.9c0.09-0.27,0.23-0.5,0.4-0.69c0.17-0.19,0.38-0.34,0.63-0.44c0.25-0.1,0.52-0.15,0.83-0.15
			c0.19,0,0.35,0.01,0.5,0.04c0.14,0.03,0.27,0.06,0.39,0.1c0.12,0.04,0.22,0.09,0.31,0.14c0.09,0.05,0.19,0.11,0.28,0.16
			c0.1,0.06,0.19,0.08,0.27,0.06c0.08-0.02,0.15-0.07,0.2-0.15l0.33-0.52c-0.13-0.12-0.27-0.23-0.42-0.33
			c-0.15-0.1-0.32-0.18-0.51-0.25C30.43,5.82,30.22,5.76,30,5.72c-0.22-0.04-0.45-0.06-0.7-0.06c-0.49,0-0.94,0.08-1.33,0.23
			c-0.4,0.15-0.73,0.37-1.01,0.65c-0.28,0.28-0.49,0.61-0.64,1C26.16,7.93,26.09,8.36,26.09,8.82z"/>
		<polygon class="st2" points="13.59,16.9 13.59,15.99 9.69,15.99 9.69,22.17 13.59,22.17 13.59,21.25 10.85,21.25 10.85,19.5 
			13.01,19.5 13.01,18.62 10.85,18.62 10.85,16.9 		"/>
		<path class="st2" d="M16.31,15.99l-2.43,6.18h0.9c0.1,0,0.18-0.03,0.24-0.08c0.07-0.05,0.11-0.11,0.13-0.18l0.46-1.26h2.56
			l0.46,1.26c0.03,0.07,0.08,0.14,0.14,0.19c0.06,0.05,0.14,0.07,0.24,0.07h0.89l-2.43-6.18H16.31z M15.91,19.84l0.75-2.05
			c0.04-0.09,0.08-0.2,0.12-0.33c0.04-0.13,0.08-0.26,0.12-0.41c0.04,0.15,0.08,0.28,0.12,0.41c0.04,0.13,0.08,0.23,0.12,0.32
			l0.75,2.06H15.91z"/>
		<path class="st2" d="M23.67,21.66c0.18-0.18,0.32-0.39,0.42-0.64c0.1-0.24,0.14-0.51,0.14-0.78c0-0.26-0.04-0.47-0.12-0.65
			c-0.08-0.18-0.19-0.33-0.32-0.46c-0.13-0.12-0.29-0.23-0.46-0.31c-0.17-0.08-0.35-0.15-0.53-0.21c-0.18-0.06-0.35-0.12-0.53-0.17
			c-0.17-0.05-0.32-0.12-0.46-0.18c-0.13-0.07-0.24-0.15-0.32-0.25c-0.08-0.1-0.12-0.22-0.12-0.36c0-0.11,0.02-0.22,0.06-0.31
			c0.04-0.1,0.1-0.18,0.18-0.25c0.08-0.07,0.18-0.12,0.3-0.16s0.26-0.06,0.42-0.06c0.18,0,0.33,0.02,0.46,0.07
			c0.13,0.04,0.24,0.09,0.34,0.15c0.1,0.05,0.18,0.1,0.25,0.15c0.07,0.04,0.13,0.07,0.19,0.07c0.06,0,0.1-0.01,0.14-0.04
			c0.04-0.03,0.07-0.07,0.11-0.13l0.29-0.54c-0.22-0.21-0.48-0.36-0.79-0.48c-0.31-0.11-0.64-0.17-1.01-0.17
			c-0.32,0-0.61,0.05-0.86,0.15c-0.25,0.1-0.46,0.23-0.63,0.4c-0.17,0.17-0.3,0.35-0.39,0.57c-0.09,0.21-0.13,0.43-0.13,0.66
			c0,0.28,0.04,0.52,0.12,0.71c0.08,0.19,0.19,0.35,0.32,0.48c0.13,0.13,0.29,0.23,0.46,0.31c0.17,0.08,0.34,0.15,0.52,0.21
			c0.18,0.06,0.35,0.11,0.52,0.16c0.17,0.05,0.32,0.11,0.46,0.18c0.13,0.07,0.24,0.16,0.32,0.26c0.08,0.1,0.12,0.24,0.12,0.4
			c0,0.29-0.09,0.51-0.27,0.67c-0.18,0.16-0.43,0.23-0.76,0.23c-0.21,0-0.4-0.03-0.55-0.09c-0.15-0.06-0.29-0.12-0.4-0.19
			c-0.11-0.07-0.21-0.14-0.3-0.19c-0.08-0.06-0.16-0.09-0.23-0.09c-0.05,0-0.1,0.01-0.15,0.04c-0.05,0.03-0.08,0.06-0.11,0.1
			l-0.34,0.55c0.12,0.12,0.26,0.23,0.41,0.33c0.15,0.1,0.32,0.19,0.49,0.26c0.18,0.07,0.36,0.13,0.55,0.16
			c0.19,0.04,0.38,0.06,0.58,0.06c0.34,0,0.65-0.05,0.91-0.16C23.27,21.98,23.49,21.84,23.67,21.66z"/>
		<path class="st2" d="M27.75,19.78L30,15.99h-1.02c-0.1,0-0.18,0.03-0.24,0.08c-0.06,0.05-0.11,0.11-0.14,0.18l-1.12,2.06
			c-0.06,0.12-0.12,0.24-0.17,0.35c-0.05,0.11-0.09,0.22-0.13,0.32c-0.04-0.11-0.08-0.22-0.13-0.32c-0.05-0.11-0.11-0.22-0.17-0.35
			l-1.13-2.06c-0.04-0.07-0.09-0.14-0.15-0.18c-0.06-0.05-0.14-0.07-0.24-0.07h-1.01l2.25,3.79v2.39h1.15V19.78z"/>
		<path class="st2" d="M10.48,31.39c-0.06-0.06-0.13-0.1-0.21-0.14c-0.08-0.03-0.16-0.05-0.25-0.05c-0.09,0-0.18,0.02-0.26,0.05
			c-0.08,0.03-0.15,0.08-0.21,0.14c-0.06,0.06-0.1,0.13-0.13,0.21c-0.03,0.08-0.05,0.16-0.05,0.25c0,0.09,0.02,0.18,0.05,0.25
			c0.03,0.08,0.08,0.15,0.13,0.2c0.06,0.06,0.13,0.1,0.21,0.13c0.08,0.03,0.17,0.05,0.26,0.05c0.09,0,0.18-0.02,0.25-0.05
			c0.08-0.03,0.15-0.08,0.21-0.13c0.06-0.06,0.1-0.12,0.14-0.2c0.03-0.08,0.05-0.16,0.05-0.25c0-0.09-0.02-0.17-0.05-0.25
			C10.58,31.52,10.54,31.45,10.48,31.39z"/>
		<path class="st2" d="M15.94,32.23c0.06,0.07,0.12,0.12,0.18,0.15c0.06,0.03,0.14,0.04,0.23,0.04h0.59v-6.18h-1.01v3.76
			c0,0.08,0,0.17,0.01,0.27c0.01,0.1,0.01,0.2,0.02,0.3l-3.24-4.14c-0.03-0.04-0.06-0.07-0.09-0.1c-0.03-0.02-0.05-0.04-0.08-0.06
			c-0.03-0.01-0.06-0.02-0.09-0.03c-0.04,0-0.08-0.01-0.13-0.01h-0.6v6.18h1.01v-3.8c0-0.16-0.01-0.33-0.03-0.52L15.94,32.23z"/>
		<polygon class="st2" points="22.21,27.16 22.21,26.25 18.31,26.25 18.31,32.43 22.21,32.43 22.21,31.51 19.46,31.51 19.46,29.76 
			21.63,29.76 21.63,28.88 19.46,28.88 19.46,27.16 		"/>
		<polygon class="st2" points="25.68,32.43 25.68,27.19 27.54,27.19 27.54,26.25 22.67,26.25 22.67,27.19 24.53,27.19 24.53,32.43 
					"/>
	</g>
</g>
</svg>
